<?xml version="1.0" encoding="UTF-8" standalone="no"?>
<!-- Created with Inkscape (http://www.inkscape.org/) -->

<svg
   width="12.687291mm"
   height="12.973046mm"
   viewBox="0 0 12.687291 12.973046"
   version="1.1"
   id="svg1"
   xml:space="preserve"
   xmlns="http://www.w3.org/2000/svg"
   xmlns:svg="http://www.w3.org/2000/svg"><defs
     id="defs1" /><g
     id="layer1"
     transform="translate(-137.23103,-153.71235)"><g
       style="fill:none"
       id="g1"
       transform="matrix(0.26458333,0,0,0.26458333,-3.2029148,134.92692)"><path
         d="m 549.998,76.400011 7.488,-5.399999 c 2.304,3.791999 4.56,7.151999 6.768,10.079989 2.208,2.928 4.488,5.544 6.84,7.848 2.4,2.304 4.944,4.44 7.632,6.408 v 0.432 c -2.688,1.92 -5.232,4.056 -7.632,6.407999 -2.352,2.304 -4.632,4.92 -6.84,7.848 -2.208,2.88 -4.464,6.216 -6.768,10.008 l -7.488,-5.328 c 2.016,-3.12 4.104,-5.832 6.264,-8.136 2.16,-2.352 4.32,-4.368 6.48,-6.048 2.16,-1.679999 4.272,-3.023999 6.336,-4.031999 2.064,-1.008 4.008,-1.728 5.832,-2.16 v 2.448 c -1.824,-0.432 -3.768,-1.152 -5.832,-2.16 -2.064,-1.056 -4.176,-2.424 -6.336,-4.104 -2.16,-1.68 -4.32,-3.672 -6.48,-5.976 -2.16,-2.352 -4.248,-5.06399 -6.264,-8.13599 z m -19.224,14.18399 h 20.088 c 3.6,0 6.936,0.168 10.008,0.504 3.072,0.336 5.88,0.768 8.424,1.296 l 5.4,3.168 -5.4,3.096 c -2.544,0.528 -5.352,0.96 -8.424,1.296 -3.072,0.335999 -6.408,0.503999 -10.008,0.503999 h -20.088 z"
         style="fill:#71b6ff"
         id="path1-2" /></g></g></svg>
